<svg width="145" height="24" viewBox="0 0 145 24" fill="none" xmlns="http://www.w3.org/2000/svg">
<path d="M39.2611 6.16944C38.6644 5.71795 37.963 5.43197 37.2254 5.33947C37.0327 5.30366 36.8376 5.28285 36.6419 5.27722C36.4112 5.27722 36.2347 5.27722 36.099 5.27722H30.2635V19.3176H32.8691V14.5245H36.0854H36.6419C36.8726 14.5245 37.0761 14.4899 37.2526 14.4692C37.9908 14.3792 38.6928 14.0929 39.2882 13.6392C39.8117 13.2239 40.2151 12.6718 40.4553 12.0415C40.7183 11.359 40.8474 10.6305 40.8353 9.8974C40.8462 9.16722 40.7195 8.44171 40.4621 7.76022C40.2243 7.13043 39.8233 6.57823 39.3018 6.16252L39.2611 6.16944ZM38.1008 10.7066C38.0277 10.9894 37.8932 11.2517 37.7072 11.4743C37.4936 11.7218 37.2085 11.8937 36.8929 11.9654C36.749 12.0082 36.6013 12.036 36.4519 12.0484H36.0108H32.8691V7.73947H35.9633H36.4044C36.5531 7.75298 36.7006 7.77842 36.8454 7.81555C37.16 7.88984 37.4444 8.06135 37.6597 8.30662C37.8445 8.53265 37.9788 8.79698 38.0533 9.08126C38.2069 9.60701 38.2069 10.167 38.0533 10.6928" fill="#2A004C"/>
<path d="M49.5344 9.26112C48.7254 8.73277 47.7808 8.46078 46.8202 8.47956C45.8708 8.45642 44.9329 8.6954 44.106 9.1712C43.3204 9.64346 42.6808 10.3313 42.2603 11.1562C41.7926 12.0837 41.5594 13.1154 41.5817 14.1579C41.562 15.1385 41.796 16.107 42.2603 16.966C42.7049 17.7729 43.3602 18.4385 44.1534 18.8888C45.0128 19.3636 45.9786 19.602 46.9559 19.5804C47.9304 19.5855 48.886 19.3072 49.7108 18.7781C50.5408 18.2704 51.1917 17.5077 51.57 16.5994L48.9712 15.8386C48.7942 16.2428 48.5038 16.5846 48.1366 16.8208C47.7397 17.0563 47.286 17.1737 46.8269 17.1597C46.4789 17.1848 46.13 17.1252 45.8091 16.9857C45.4881 16.8461 45.2044 16.6308 44.9813 16.3574C44.656 15.9083 44.4566 15.3776 44.4045 14.8219H51.6243C51.75 13.698 51.6199 12.5596 51.2443 11.4951C50.9196 10.5854 50.3211 9.80347 49.5344 9.26112ZM46.8812 10.7827C47.1897 10.7504 47.5013 10.7967 47.7879 10.9174C48.0745 11.0381 48.3272 11.2295 48.5233 11.4744C48.7731 11.8713 48.9223 12.3252 48.9576 12.7954H44.4452C44.5223 12.3611 44.6938 11.9498 44.9474 11.592C45.1844 11.3047 45.4856 11.0794 45.8256 10.935C46.1655 10.7906 46.5345 10.7313 46.9016 10.762" fill="#2A004C"/>
<path d="M60.7916 9.19194C59.9634 8.719 59.0264 8.48022 58.0774 8.5003C57.1279 8.47681 56.19 8.71581 55.3631 9.19194C54.5833 9.65928 53.9447 10.3365 53.5175 11.1493C53.0535 12.0433 52.82 13.0429 52.8389 14.0542C52.828 15.0579 53.0612 16.0488 53.5175 16.9383C53.9391 17.7525 54.5731 18.4322 55.3496 18.9026C56.1899 19.3681 57.1311 19.612 58.0875 19.612C59.0439 19.612 59.9852 19.3681 60.8255 18.9026C61.6072 18.4345 62.2461 17.7545 62.6712 16.9383C63.1313 16.0478 63.3646 15.0537 63.3497 14.0473C63.364 13.0431 63.1307 12.0514 62.6712 11.1631C62.2465 10.3448 61.6076 9.66247 60.8255 9.19194H60.7916ZM59.923 16.2674C59.6882 16.5327 59.4014 16.7448 59.0812 16.89C58.7609 17.0352 58.4143 17.1102 58.0638 17.1102C57.7133 17.1102 57.3667 17.0352 57.0464 16.89C56.7261 16.7448 56.4393 16.5327 56.2045 16.2674C55.7569 15.6098 55.5372 14.8188 55.5803 14.0196C55.5745 13.4842 55.6641 12.9523 55.8449 12.4496C55.9978 12.0114 56.2798 11.6321 56.6524 11.3637C57.0679 11.0906 57.5562 10.9553 58.0502 10.9764C58.4034 10.9519 58.7572 11.0153 59.0811 11.1611C59.405 11.3068 59.6893 11.5307 59.9094 11.8133C60.3591 12.4702 60.5811 13.2612 60.5405 14.0611C60.5702 14.8491 60.354 15.6264 59.923 16.2813" fill="#2A004C"/>
<path d="M72.5441 9.20577C71.7711 8.71006 70.8719 8.45747 69.9588 8.47955C69.0779 8.45029 68.2106 8.70701 67.4821 9.21269C67.4142 9.2611 67.36 9.31643 67.2989 9.36485V8.77695H64.9986V23.9931H67.6246V18.9372C68.3636 19.4094 69.2225 19.6499 70.0945 19.6288C70.9874 19.6458 71.8639 19.3826 72.6052 18.8749C73.3271 18.376 73.9038 17.6879 74.2744 16.883C74.6861 15.9974 74.8928 15.0272 74.8783 14.0473C74.8969 13.0551 74.6878 12.0722 74.2676 11.177C73.8871 10.3716 73.2953 9.68933 72.5577 9.20577H72.5441ZM71.8791 15.6588C71.7303 16.1143 71.4544 16.5157 71.0852 16.8138C70.6944 17.1118 70.2159 17.2655 69.7281 17.2496C69.232 17.2727 68.7417 17.132 68.3303 16.8484C67.9712 16.5621 67.71 16.1676 67.5839 15.721C67.4198 15.1792 67.3419 14.6142 67.3532 14.0473C67.342 13.4781 67.4199 12.9108 67.5839 12.3666C67.7059 11.9236 67.9625 11.5314 68.3167 11.2461C68.6966 10.9609 69.162 10.8191 69.6331 10.845C70.1445 10.8248 70.648 10.9781 71.0649 11.2807C71.4253 11.5886 71.6934 11.9936 71.8384 12.4496C72.0202 12.964 72.1098 13.5075 72.103 14.0542C72.1086 14.6025 72.0213 15.1476 71.8452 15.6657" fill="#2A004C"/>
<path d="M79.3839 4.966H76.7783V19.3107H79.3839V4.966Z" fill="#2A004C"/>
<path d="M89.2908 9.26107C88.4662 8.72246 87.5013 8.45006 86.5223 8.47952C85.5727 8.45428 84.6343 8.6934 83.8081 9.17116C83.0204 9.64299 82.3786 10.3308 81.9556 11.1562C81.4879 12.0836 81.2547 13.1154 81.2771 14.1579C81.2573 15.1384 81.4913 16.107 81.9556 16.966C82.4046 17.7719 83.0617 18.4369 83.8556 18.8887C84.7146 19.3644 85.6807 19.6029 86.658 19.5804C87.6189 19.5791 88.5598 19.301 89.3722 18.7781C90.2187 18.2787 90.8848 17.5148 91.2722 16.5994L88.6665 15.8386C88.4939 16.2456 88.2025 16.5885 87.8319 16.8207C87.4353 17.057 86.9814 17.1744 86.5223 17.1596C86.1744 17.1831 85.8261 17.1227 85.5054 16.9833C85.1847 16.8439 84.9008 16.6294 84.6766 16.3573C84.3513 15.9083 84.152 15.3775 84.0999 14.8219H91.3604C91.4873 13.6974 91.3549 12.5582 90.9736 11.4951C90.6507 10.6014 90.0625 9.83257 89.2908 9.29565V9.26107ZM86.6376 10.8173C86.9461 10.785 87.2577 10.8312 87.5443 10.952C87.8309 11.0727 88.0836 11.2641 88.2797 11.5089C88.5265 11.9073 88.6755 12.3604 88.714 12.8299H84.1745C84.2515 12.3956 84.4231 11.9844 84.6766 11.6265C84.9151 11.3391 85.2175 11.1138 85.5585 10.9695C85.8996 10.8251 86.2696 10.7658 86.6376 10.7965" fill="#2A004C"/>
<path d="M96.4428 7.60809C97.1693 7.13026 98.0213 6.88904 98.8855 6.91644C99.8436 6.87381 100.786 7.17212 101.552 7.76025C102.261 8.35356 102.763 9.16356 102.984 10.0703L105.02 9.51702C104.653 8.21079 103.888 7.05758 102.835 6.2248C101.691 5.37457 100.3 4.94096 98.8855 4.99368C97.6471 4.95687 96.4238 5.2782 95.3571 5.92048C94.3852 6.53892 93.6117 7.43315 93.1314 8.49339C92.5996 9.69421 92.3376 11.001 92.3646 12.3182C92.339 13.6353 92.6009 14.9417 93.1314 16.143C93.6156 17.1897 94.3891 18.0695 95.3571 18.6744C96.4238 19.3167 97.6471 19.638 98.8855 19.6012C100.259 19.6722 101.615 19.2604 102.727 18.4345C103.839 17.6086 104.638 16.4188 104.993 15.064L102.957 14.5038C102.732 15.409 102.23 16.2179 101.525 16.8138C100.759 17.402 99.8164 17.7003 98.8584 17.6577C97.9921 17.6843 97.1382 17.4432 96.4088 16.966C95.7703 16.4996 95.2796 15.8528 94.9974 15.1055C94.6509 14.2103 94.4869 13.2525 94.5157 12.2905C94.4964 11.3264 94.6624 10.3678 95.0042 9.4686C95.293 8.7173 95.7936 8.06994 96.4428 7.60809Z" fill="#2A004C"/>
<path d="M113.915 9.2265C113.105 8.70404 112.159 8.44364 111.201 8.47952C110.274 8.45814 109.358 8.69743 108.555 9.17117C107.789 9.63413 107.171 10.3142 106.777 11.1285C106.332 12.0602 106.113 13.0874 106.139 14.1233C106.13 15.1203 106.363 16.1041 106.818 16.9867C107.232 17.7892 107.86 18.4558 108.63 18.9095C109.456 19.3866 110.394 19.6257 111.344 19.6011C112.302 19.6093 113.243 19.3407 114.058 18.8265C114.874 18.3057 115.512 17.5397 115.883 16.634L113.922 15.9977C113.691 16.5077 113.321 16.9397 112.857 17.2426C112.366 17.5423 111.801 17.6934 111.228 17.6784C110.817 17.704 110.406 17.631 110.028 17.4652C109.65 17.2994 109.315 17.0455 109.05 16.7239C108.603 16.1124 108.35 15.3765 108.324 14.6144H116.033C116.13 13.5045 115.981 12.3866 115.598 11.3429C115.271 10.4782 114.69 9.73702 113.936 9.21958L113.915 9.2265ZM109.064 11.2461C109.34 10.9153 109.688 10.6554 110.08 10.4871C110.473 10.3189 110.899 10.2472 111.323 10.2778C111.707 10.2479 112.092 10.3121 112.446 10.4649C112.8 10.6177 113.113 10.8548 113.359 11.1562C113.73 11.7102 113.95 12.3546 113.997 13.0236H108.392C108.462 12.3808 108.696 11.768 109.071 11.2461" fill="#2A004C"/>
<path d="M126.36 11.0109C126.206 10.5592 125.976 10.138 125.682 9.76599C125.362 9.37197 124.958 9.05739 124.501 8.84611C123.932 8.59416 123.316 8.4737 122.696 8.49337C121.861 8.46598 121.035 8.67934 120.314 9.10893C119.916 9.35676 119.566 9.67809 119.283 10.0565V8.77694H117.491V19.3176H119.527V13.8329C119.515 13.2951 119.584 12.7587 119.731 12.2421C119.842 11.8509 120.037 11.4895 120.301 11.1839C120.53 10.9264 120.816 10.7274 121.135 10.6029C121.462 10.4828 121.806 10.422 122.153 10.4231C122.629 10.3977 123.102 10.5181 123.51 10.7689C123.85 10.9866 124.125 11.2952 124.304 11.6611C124.496 12.0406 124.627 12.4493 124.691 12.8715C124.758 13.2876 124.792 13.7086 124.793 14.1303V19.3176H126.828V13.4594C126.825 13.0796 126.796 12.7005 126.74 12.3251C126.681 11.8759 126.571 11.4351 126.414 11.0109" fill="#2A004C"/>
<path d="M131.721 5.84436H129.685V8.77693H127.704V10.4161H129.685V15.1677C129.685 15.7418 129.685 16.2536 129.685 16.7032C129.7 17.1698 129.821 17.6266 130.038 18.038C130.28 18.5131 130.672 18.8909 131.151 19.1101C131.68 19.3462 132.249 19.4732 132.827 19.4836C133.469 19.4959 134.11 19.4403 134.74 19.3176V17.5885C134.157 17.6825 133.564 17.7034 132.976 17.6507C132.751 17.6376 132.532 17.5675 132.34 17.4467C132.149 17.326 131.989 17.1584 131.877 16.9591C131.753 16.713 131.688 16.4404 131.687 16.1637C131.687 15.8501 131.687 15.4836 131.687 15.064V10.4161H134.761V8.77693H131.687L131.721 5.84436Z" fill="#2A004C"/>
<path d="M144.946 11.585C144.906 11.2057 144.802 10.8361 144.64 10.4922C144.332 9.8231 143.797 9.29006 143.134 8.99135C142.37 8.65532 141.544 8.49023 140.712 8.5072C139.697 8.4558 138.694 8.73698 137.848 9.3095C137.137 9.82882 136.622 10.5806 136.389 11.4398L138.255 12.0277C138.321 11.7614 138.439 11.5111 138.601 11.2915C138.763 11.0718 138.966 10.8871 139.198 10.7481C139.656 10.4932 140.17 10.3622 140.691 10.3677C141.02 10.3327 141.352 10.3681 141.666 10.4717C141.981 10.5754 142.27 10.7449 142.516 10.9694C142.853 11.4042 143.03 11.9445 143.019 12.498L141.845 12.6709C141.207 12.7631 140.596 12.8599 140.013 12.9614C139.436 13.0651 138.913 13.1896 138.452 13.321C137.964 13.4715 137.505 13.7054 137.095 14.0127C136.741 14.2823 136.457 14.6361 136.267 15.0432C136.078 15.4785 135.983 15.9504 135.989 16.4265C135.984 16.9788 136.123 17.5226 136.389 18.0035C136.667 18.4912 137.074 18.8891 137.563 19.1516C138.159 19.4608 138.822 19.6107 139.49 19.5873C140.339 19.6129 141.179 19.4101 141.926 18.9994C142.438 18.6885 142.876 18.2656 143.209 17.7614V19.2968H144.98V12.823C144.983 12.4097 144.965 11.9964 144.925 11.585H144.946ZM142.781 15.8524C142.695 16.2182 142.528 16.5589 142.293 16.8484C142.026 17.1808 141.69 17.4479 141.309 17.63C140.85 17.8473 140.349 17.9539 139.843 17.9412C139.479 17.9542 139.117 17.8833 138.784 17.7337C138.538 17.6224 138.329 17.4386 138.185 17.2057C138.041 16.9728 137.969 16.7015 137.977 16.4265C137.973 16.183 138.037 15.9434 138.16 15.7349C138.291 15.5324 138.465 15.3623 138.669 15.2369C138.898 15.0893 139.144 14.9709 139.402 14.8841C139.767 14.7703 140.139 14.6802 140.515 14.6144C140.935 14.536 141.404 14.4599 141.919 14.3862L142.985 14.2271C142.985 14.4 142.985 14.5937 142.985 14.815C142.976 15.1751 142.915 15.5319 142.801 15.8732" fill="#2A004C"/>
<path d="M15.0707 3.45821C15.0707 4.14218 14.8717 4.81079 14.4989 5.37949C14.1261 5.94819 13.5962 6.39144 12.9762 6.65319C12.3563 6.91493 11.6741 6.98341 11.016 6.84998C10.3579 6.71654 9.75333 6.38718 9.27885 5.90354C8.80436 5.4199 8.48123 4.8037 8.35032 4.13288C8.21941 3.46205 8.2866 2.76672 8.54339 2.13481C8.80018 1.50291 9.23504 0.962807 9.79297 0.582814C10.3509 0.202821 11.0069 0 11.6779 0C12.5777 0 13.4407 0.364346 14.0769 1.01289C14.7132 1.66143 15.0707 2.54104 15.0707 3.45821Z" fill="#FF9800"/>
<path d="M15.0707 20.4104C15.0707 21.0943 14.8717 21.7629 14.4989 22.3316C14.1261 22.9003 13.5962 23.3436 12.9762 23.6053C12.3563 23.8671 11.6741 23.9356 11.016 23.8021C10.3579 23.6687 9.75333 23.3393 9.27885 22.8557C8.80436 22.372 8.48123 21.7559 8.35032 21.085C8.21941 20.4142 8.2866 19.7189 8.54339 19.087C8.80018 18.4551 9.23504 17.915 9.79297 17.535C10.3509 17.155 11.0069 16.9521 11.6779 16.9521C12.5777 16.9521 13.4407 17.3165 14.0769 17.965C14.7132 18.6136 15.0707 19.4932 15.0707 20.4104Z" fill="#FF9800"/>
<path d="M20.0241 15.3614C19.3531 15.3614 18.6971 15.1586 18.1392 14.7786C17.5812 14.3986 17.1464 13.8585 16.8896 13.2266C16.6328 12.5947 16.5656 11.8993 16.6965 11.2285C16.8274 10.5577 17.1506 9.94148 17.6251 9.45784C18.0995 8.9742 18.7041 8.64483 19.3622 8.5114C20.0203 8.37796 20.7025 8.44644 21.3225 8.70819C21.9424 8.96993 22.4723 9.41318 22.8451 9.98188C23.2179 10.5506 23.4169 11.2192 23.4169 11.9032C23.4169 12.8203 23.0594 13.6999 22.4231 14.3485C21.7869 14.997 20.9239 15.3614 20.0241 15.3614Z" fill="#FF9800"/>
<path d="M3.39277 15.3614C2.72174 15.3614 2.06578 15.1586 1.50785 14.7786C0.94991 14.3986 0.515051 13.8585 0.25826 13.2266C0.00147003 12.5947 -0.065718 11.8993 0.0651926 11.2285C0.196103 10.5577 0.519233 9.94148 0.993719 9.45784C1.46821 8.9742 2.07274 8.64483 2.73087 8.5114C3.389 8.37796 4.07118 8.44644 4.69112 8.70819C5.31107 8.96993 5.84095 9.41318 6.21375 9.98188C6.58655 10.5506 6.78553 11.2192 6.78553 11.9032C6.78553 12.8203 6.42808 13.6999 5.79181 14.3485C5.15555 14.997 4.29258 15.3614 3.39277 15.3614Z" fill="#FF9800"/>
<path d="M6.73803 20.4103C6.73803 21.1881 6.43491 21.934 5.89536 22.484C5.3558 23.0339 4.62401 23.3429 3.86097 23.3429H0V17.4778H3.86097C4.62401 17.4778 5.3558 17.7867 5.89536 18.3367C6.43491 18.8867 6.73803 19.6326 6.73803 20.4103Z" fill="#FF365F"/>
<path d="M16.6585 3.45821C16.6549 3.0711 16.7267 2.68712 16.8698 2.32851C17.0128 1.9699 17.2243 1.64379 17.4919 1.36909C17.7595 1.09439 18.0779 0.876555 18.4287 0.72821C18.7796 0.579865 19.1558 0.503959 19.5356 0.504891H23.3965V6.37002H19.5356C18.776 6.37004 18.0473 6.06392 17.5083 5.51844C16.9693 4.97296 16.6639 4.23237 16.6585 3.45821Z" fill="#FF365F"/>
<path d="M3.39276 6.86801C3.01298 6.87167 2.63626 6.79847 2.28444 6.65265C1.93262 6.50683 1.61269 6.29129 1.34318 6.01852C1.07368 5.74575 0.859969 5.42117 0.714431 5.0636C0.568893 4.70603 0.494424 4.32257 0.495339 3.93545V0H6.24947V3.93545C6.24949 4.70963 5.94916 5.45241 5.41401 6.00178C4.87885 6.55115 4.15227 6.86253 3.39276 6.86801Z" fill="#FF365F"/>
<path d="M20.0241 16.9798C20.7871 16.9798 21.5189 17.2888 22.0585 17.8387C22.598 18.3887 22.9012 19.1346 22.9012 19.9124V23.8478H17.147V19.9124C17.147 19.1346 17.4502 18.3887 17.9897 17.8387C18.5293 17.2888 19.2611 16.9798 20.0241 16.9798Z" fill="#FF365F"/>
</svg>
